<?xml version="1.0" encoding="utf-8"?>
<!-- Generator: Adobe Illustrator 21.0.0, SVG Export Plug-In . SVG Version: 6.00 Build 0)  -->
<svg version="1.1" id="Layer_1" xmlns="http://www.w3.org/2000/svg" xmlns:xlink="http://www.w3.org/1999/xlink" x="0px" y="0px"
	 viewBox="0 0 500 200" style="enable-background:new 0 0 500 200;" xml:space="preserve">
<style type="text/css">
	.st0{fill:#0A308E;}
	.st1{fill:#F94F5B;}
	.st2{fill:#24DEC9;}
	.st3{fill:#FFB41D;}
	.st4{fill:#FFFFFF;}
</style>
<g>
	<path class="st4" d="M93.426,92.1c-0.543-0.452-1.117-0.852-1.707-1.227c2.279-2.844,3.547-6.397,3.547-10.148v-0.001
		c0,0,0-0.001,0-0.001c0-4.939-2.188-9.539-6.001-12.622c-2.994-2.496-6.756-3.66-11.836-3.66H56.632v16.283v7.25v9.033v9.327v18.36
		h23.449c5.727,0,9.969-1.312,13.345-4.126c4.3-3.476,6.766-8.663,6.766-14.232v-0.001c0-0.001,0-0.001,0-0.002
		C100.192,100.763,97.726,95.576,93.426,92.1z M67.036,74.199h8.489c4.79,0,6.357,1.021,7.345,2.132
		c1.148,1.225,1.756,2.769,1.756,4.465c0,1.697-0.611,3.245-1.772,4.483c-0.976,1.098-2.539,2.113-7.329,2.113h-8.489V74.199z
		 M87.148,112.198c-1.421,1.421-3.489,2.737-8.951,2.737h-11.16V97.151h11.16c5.462,0,7.526,1.311,8.935,2.721
		c1.613,1.694,2.501,3.871,2.501,6.129C89.634,108.313,88.749,110.516,87.148,112.198z"/>
	<rect x="133.962" y="83.637" class="st4" width="9.759" height="41.056"/>
	<path class="st4" d="M138.799,64.44c-3.415,0-6.089,2.712-6.089,6.173c0,3.415,2.675,6.09,6.089,6.09
		c3.462,0,6.173-2.675,6.173-6.09C144.973,67.209,142.203,64.44,138.799,64.44z"/>
	<path class="st4" d="M180.7,86.267c-3.266-2.3-7.082-3.465-11.354-3.465c-3.685,0-7.166,0.91-10.064,2.631
		c-6.506,3.848-10.548,11.026-10.548,18.732c0,7.801,3.912,14.771,10.463,18.647c2.863,1.701,6.72,2.716,10.316,2.716
		c4.141,0,7.816-1.108,10.936-3.296v0.295c0,4.501-0.623,7.461-2.02,9.596c-1.76,2.679-4.786,4.095-8.75,4.095
		c-6.33,0-9.723-3.361-12.206-6.648l-0.61-0.808l-7.144,6.633l0.411,0.643c2.803,4.391,9.693,9.52,19.884,9.52
		c7.917,0,14.389-3.709,17.757-10.178c1.686-3.284,2.438-7.377,2.438-13.271V83.637H180.7V86.267z M180.45,111.201
		c-2.434,3.124-6.107,4.985-9.851,4.985c-6.788,0-12.105-5.28-12.105-12.021c0-6.854,5.025-12.022,11.688-12.022
		c3.937,0,7.766,1.864,10.269,4.992V111.201z"/>
	<path class="st4" d="M216.15,82.802c-4.67,0-8.266,1.721-10.603,3.326V64.415h-9.759v60.278h9.759v-27.54
		c1.977-2.31,5.357-5.01,10.352-5.01c2.902,0,5.661,1.307,7.385,3.499c1.108,1.369,2.133,3.349,2.133,8.523v20.528h9.759v-20.111
		c0-6.584-1.207-10.922-4.034-14.503C227.515,85.455,222.05,82.802,216.15,82.802z"/>
	<path class="st4" d="M299.106,85.434c-2.899-1.722-6.38-2.632-10.064-2.632c-4.272,0-8.088,1.165-11.354,3.465v-2.63h-9.508v61.087
		h9.759v-22.492c3.12,2.187,6.795,3.296,10.936,3.296c3.596,0,7.452-1.015,10.314-2.715c6.553-3.875,10.464-10.846,10.464-18.648
		C309.653,96.459,305.612,89.282,299.106,85.434z M287.79,116.186c-3.745,0-7.418-1.861-9.852-4.985V97.135
		c2.503-3.129,6.332-4.992,10.269-4.992c6.663,0,11.688,5.168,11.688,12.022C299.895,110.906,294.578,116.186,287.79,116.186z"/>
	<path class="st4" d="M333.872,82.802c-11.605,0-20.027,8.984-20.027,21.363c0,12.179,9.112,21.362,21.196,21.362
		c10.163,0,15.447-5.383,17.247-7.698l0.509-0.654l-6.456-6.143l-0.63,0.699c-2.242,2.491-5.254,5.039-10.587,5.039
		c-5.879,0-10.825-4.28-11.671-10.022h30.017l0.091-0.814c0.089-0.801,0.089-1.431,0.089-1.77
		C353.649,91.986,345.147,82.802,333.872,82.802z M324.363,98.242c1.56-4.018,5.42-6.683,9.76-6.683c3.948,0,7.71,2.782,9.125,6.683
		H324.363z"/>
	<path class="st4" d="M389.661,86.267c-3.266-2.3-7.082-3.465-11.354-3.465c-3.685,0-7.166,0.91-10.064,2.631
		c-6.506,3.848-10.548,11.026-10.548,18.732c0,7.801,3.912,14.772,10.463,18.647c2.863,1.701,6.719,2.716,10.316,2.716
		c4.106,0,8.048-1.217,11.187-3.44v2.606h9.508V83.637h-9.508V86.267z M389.411,111.201c-2.434,3.124-6.108,4.985-9.851,4.985
		c-6.788,0-12.105-5.28-12.105-12.021c0-6.854,5.025-12.022,11.688-12.022c3.937,0,7.766,1.864,10.269,4.992V111.201z"/>
	<rect x="433.608" y="63.918" class="st4" width="9.761" height="60.775"/>
	<path class="st4" d="M262.6,115.685l-0.039,0.011c-1.216,0.348-3.414,0.556-4.835,0.556c-2.433,0-4.799-0.899-5.893-2.245
		c-1.03-1.202-1.241-3.051-1.241-5.458V92.438h11.967v-8.801h-11.967V64.44h-9.75v43.635c0,5.392,1.211,9.354,3.699,12.108
		c3.085,3.497,7.546,5.345,12.9,5.345c1.749,0,3.597-0.178,5.16-0.476V115.685z"/>
	<g>
		<path class="st4" d="M128.833,83.245c-1.33-0.289-2.702-0.442-4.1-0.442c-4.67,0-8.266,1.721-10.603,3.326v-2.491h-9.759v41.056
			h9.759v-27.54c1.977-2.31,5.357-5.01,10.352-5.01c1.536,0,3.027,0.375,4.35,1.045V83.245z"/>
	</g>
	<g>
		<path class="st4" d="M429.211,83.245c-1.33-0.289-2.702-0.442-4.1-0.442c-4.67,0-8.266,1.721-10.603,3.326v-2.491h-9.759v41.056
			h9.759v-27.54c1.977-2.31,5.357-5.01,10.352-5.01c1.536,0,3.027,0.375,4.35,1.045V83.245z"/>
	</g>
</g>
</svg>
