<svg xmlns="http://www.w3.org/2000/svg" width="177.42" height="53.058" viewBox="0 0 177.42 53.058">
  <g id="Group_9" data-name="Group 9" transform="translate(-283.098 -201.264)">
    <g id="Group_8" data-name="Group 8" transform="translate(283.098 201.264)">
      <g id="Group_7" data-name="Group 7" transform="translate(0 19.955)">
        <g id="Group_6" data-name="Group 6">
          <path id="Path_1272" data-name="Path 1272" d="M302.685,283.616h-3.422V282.05a5.78,5.78,0,0,1-2.523,1.547,11.531,11.531,0,0,1-3.548.5q-5.027,0-7.56-1.818a7.4,7.4,0,0,1-.01-11.137q2.524-1.817,7.473-1.817,4.718,0,7.057,1.431a4.77,4.77,0,0,1,2.475,3.983H296.71a2.116,2.116,0,0,0-1-1.122,4.955,4.955,0,0,0-2.62-.541,5.187,5.187,0,0,0-3.393.947,3.335,3.335,0,0,0-1.131,2.707q0,3.77,4.679,3.77a6.881,6.881,0,0,0,2.195-.3,3.639,3.639,0,0,0,1.305-.7,1.309,1.309,0,0,0,.464-.686h-3.6v-2.862h9.068Z" transform="translate(-283.098 -269.327)" fill="#fff"/>
          <path id="Path_1273" data-name="Path 1273" d="M373.352,284.781H367.57l-2.513-4.157h-5.085v4.157h-4.989V270.975h12.452a6.424,6.424,0,0,1,4.273,1.141,4.4,4.4,0,0,1,1.3,3.48,4.052,4.052,0,0,1-.773,2.688,3.95,3.95,0,0,1-2.2,1.238v.174ZM367.106,277a1.533,1.533,0,0,0,0-1.991,1.746,1.746,0,0,0-1.16-.319h-5.975v2.63h5.975A1.745,1.745,0,0,0,367.106,277Z" transform="translate(-333.907 -270.492)" fill="#fff"/>
          <path id="Path_1274" data-name="Path 1274" d="M436.177,271.144a7.406,7.406,0,0,1,0,11.137q-2.523,1.818-7.493,1.818-4.95,0-7.473-1.818a7.406,7.406,0,0,1,0-11.137q2.523-1.817,7.473-1.817Q433.654,269.327,436.177,271.144Zm-4.09,8.266a3.759,3.759,0,0,0,0-5.394,6.625,6.625,0,0,0-6.8,0,3.781,3.781,0,0,0,0,5.394,6.625,6.625,0,0,0,6.8,0Z" transform="translate(-378.935 -269.327)" fill="#fff"/>
          <path id="Path_1275" data-name="Path 1275" d="M500.4,284.781l-2.243-8.372h-.135l-2.224,8.372h-6.11l-4.2-13.806h5.375l2.185,8.488h.135l2.243-8.488h5.337l2.243,8.488h.135l2.2-8.488h5.337l-4.273,13.806Z" transform="translate(-426.154 -270.492)" fill="#fff"/>
          <path id="Path_1276" data-name="Path 1276" d="M289.341,337.133v2.417h10.267v3.364H289.341V347.3h-4.989V333.5H300.11v3.635Z" transform="translate(-283.984 -314.684)" fill="#fff"/>
          <path id="Path_1277" data-name="Path 1277" d="M347.112,338.738h10.228v3H347.112v2.224H358V347.3H342.124V333.5H357.8v3.268H347.112Z" transform="translate(-324.818 -314.684)" fill="#fff"/>
          <path id="Path_1278" data-name="Path 1278" d="M411.4,345.293h-7.753l-.986,2.011h-5.472l7.038-13.806h6.651l6.961,13.806h-5.472Zm-1.624-3.326-2.2-4.524h-.116l-2.2,4.524Z" transform="translate(-363.739 -314.684)" fill="#fff"/>
          <path id="Path_1279" data-name="Path 1279" d="M487.772,347.3h-5.781l-2.514-4.157h-5.085V347.3H469.4V333.5h12.452a6.425,6.425,0,0,1,4.273,1.141,4.4,4.4,0,0,1,1.3,3.48,4.052,4.052,0,0,1-.773,2.688,3.95,3.95,0,0,1-2.2,1.238v.174Zm-6.245-7.783a1.533,1.533,0,0,0,0-1.991,1.744,1.744,0,0,0-1.16-.319h-5.975v2.63h5.975A1.746,1.746,0,0,0,481.527,339.521Z" transform="translate(-414.782 -314.684)" fill="#fff"/>
          <path id="Path_1280" data-name="Path 1280" d="M534.89,347.3V333.5h4.989v9.977h10.789V347.3Z" transform="translate(-461.068 -314.684)" fill="#fff"/>
          <path id="Path_1281" data-name="Path 1281" d="M597.65,338.738h10.228v3H597.65v2.224h10.885V347.3H592.661V333.5h15.681v3.268H597.65Z" transform="translate(-501.901 -314.684)" fill="#fff"/>
          <path id="Path_1282" data-name="Path 1282" d="M660.34,335.31a6.011,6.011,0,0,0-2.368-.367,6.088,6.088,0,0,0-2.262.3.954.954,0,0,0-.677.88.712.712,0,0,0,.406.677,4.126,4.126,0,0,0,1.392.31l5.627.464a7.167,7.167,0,0,1,3.838,1.218,3.615,3.615,0,0,1,1.286,3.036,4.023,4.023,0,0,1-1.035,2.958,5.726,5.726,0,0,1-3.035,1.44,28.289,28.289,0,0,1-5.288.4,24.833,24.833,0,0,1-5.1-.425,5.721,5.721,0,0,1-3.007-1.527,4.592,4.592,0,0,1-1.131-3.113h5.8a1.978,1.978,0,0,0,1.073,1.518,6.108,6.108,0,0,0,2.562.416,7.053,7.053,0,0,0,2.5-.319,1.055,1.055,0,0,0,.764-1,.863.863,0,0,0-.444-.812,3.4,3.4,0,0,0-1.334-.329l-5.414-.522a8.012,8.012,0,0,1-3.867-1.179,3.389,3.389,0,0,1-1.3-2.959,3.6,3.6,0,0,1,1.034-2.717,5.942,5.942,0,0,1,2.958-1.4,23.932,23.932,0,0,1,4.824-.406,23.124,23.124,0,0,1,4.795.416,6.1,6.1,0,0,1,2.988,1.44,3.88,3.88,0,0,1,1.131,2.8h-5.743A1.577,1.577,0,0,0,660.34,335.31Z" transform="translate(-541.709 -313.518)" fill="#fff"/>
          <path id="Path_1283" data-name="Path 1283" d="M725.3,335.31a6.011,6.011,0,0,0-2.368-.367,6.087,6.087,0,0,0-2.262.3.954.954,0,0,0-.677.88.712.712,0,0,0,.406.677,4.126,4.126,0,0,0,1.392.31l5.627.464a7.167,7.167,0,0,1,3.838,1.218,3.615,3.615,0,0,1,1.286,3.036,4.023,4.023,0,0,1-1.035,2.958,5.726,5.726,0,0,1-3.035,1.44,28.288,28.288,0,0,1-5.288.4,24.834,24.834,0,0,1-5.1-.425,5.721,5.721,0,0,1-3.007-1.527,4.592,4.592,0,0,1-1.131-3.113h5.8a1.978,1.978,0,0,0,1.073,1.518,6.108,6.108,0,0,0,2.562.416,7.053,7.053,0,0,0,2.5-.319,1.055,1.055,0,0,0,.764-1,.863.863,0,0,0-.444-.812,3.4,3.4,0,0,0-1.334-.329l-5.414-.522a8.012,8.012,0,0,1-3.867-1.179,3.389,3.389,0,0,1-1.3-2.959,3.6,3.6,0,0,1,1.034-2.717,5.941,5.941,0,0,1,2.958-1.4,23.933,23.933,0,0,1,4.824-.406,23.124,23.124,0,0,1,4.795.416,6.1,6.1,0,0,1,2.988,1.44,3.88,3.88,0,0,1,1.131,2.8h-5.743A1.577,1.577,0,0,0,725.3,335.31Z" transform="translate(-587.623 -313.518)" fill="#fff"/>
          <path id="Path_1284" data-name="Path 1284" d="M781.141,347.3V333.5h4.989v9.977h10.789V347.3Z" transform="translate(-635.122 -314.684)" fill="#fff"/>
          <path id="Path_1285" data-name="Path 1285" d="M834.024,342.914V347.3h-5.008v-4.37l-7.251-9.436H827.8l3.732,5.3,3.712-5.3h6.013Z" transform="translate(-663.835 -314.684)" fill="#fff"/>
        </g>
      </g>
      <path id="Path_1286" data-name="Path 1286" d="M794.425,201.289l-23.7,9.155a.359.359,0,0,0-.049.647l8.815,5.054a1.461,1.461,0,0,1,.541.541l5.054,8.815a.359.359,0,0,0,.647-.049l9.155-23.7A.359.359,0,0,0,794.425,201.289Z" transform="translate(-627.598 -201.264)" fill="#fd521e"/>
    </g>
  </g>
</svg>
